<svg width="169" height="38" viewBox="0 0 169 38" fill="none" xmlns="http://www.w3.org/2000/svg">
<path d="M10.3836 31.5V3.6H0.708594V-2.14577e-06H24.1086V3.6H14.4336V31.5H10.3836ZM30.9293 31.5L26.7893 6.3H30.7943L34.2593 27.9H36.6893L41.0993 8.55H46.6793L51.0893 27.9H53.5193L56.9843 6.3H60.9893L56.8493 31.5H47.9843L43.8893 13.14L39.7943 31.5H30.9293ZM65.0322 27.45V17.1L83.0322 16.65V9.9H65.9322V6.3H83.0322L87.0822 10.35V31.5H69.0822L65.0322 27.45ZM69.0822 20.7V27.9H83.0322V19.8L69.0822 20.7ZM91.6096 37.8V34.2H103.355L105.29 27.9H97.5946L90.2596 6.3H94.3546L100.475 24.3H106.37L112.175 6.3H116.27L106.19 37.8H91.6096ZM119.447 31.5V-2.14577e-06H123.497V6.3H138.122L142.172 10.35V27.45L138.122 31.5H119.447ZM123.497 27.9H138.122V9.9H123.497V27.9ZM146.902 27.45V17.1L164.902 16.65V9.9H147.802V6.3H164.902L168.952 10.35V31.5H150.952L146.902 27.45ZM150.952 20.7V27.9H164.902V19.8L150.952 20.7Z" fill="black"/>
</svg>
